<?xml version='1.0' encoding='utf-8'?>
<mxfile host="app.diagrams.net"><diagram name="Rooman AWS Infra"><mxGraphModel><root><mxCell id="0" /><mxCell id="1" parent="0" /><mxCell id="region" value="AWS Region: us-east-1" style="shape=rectangle;whiteSpace=wrap;html=1;fillColor=#e1f5fe;strokeColor=#000000;fontSize=12;" vertex="1" parent="1"><mxGeometry as="geometry" x="20" y="20" width="300" height="40" /></mxCell><mxCell id="vpc" value="VPC: 10.0.0.0/16" style="shape=rectangle;whiteSpace=wrap;html=1;fillColor=#fff2cc;strokeColor=#000000;fontSize=12;" vertex="1" parent="1"><mxGeometry as="geometry" x="40" y="80" width="260" height="50" /></mxCell><mxCell id="pub_sub_1a" value="Public Subnet 1a&#10;subnet-0be60a5d02a0268b8" style="shape=rectangle;whiteSpace=wrap;html=1;fillColor=#d0f0c0;strokeColor=#000000;fontSize=12;" vertex="1" parent="1"><mxGeometry as="geometry" x="60" y="150" width="140" height="60" /></mxCell><mxCell id="pub_sub_1b" value="Public Subnet 1b&#10;subnet-092aca585ca6fa32c" style="shape=rectangle;whiteSpace=wrap;html=1;fillColor=#d0f0c0;strokeColor=#000000;fontSize=12;" vertex="1" parent="1"><mxGeometry as="geometry" x="180" y="150" width="140" height="60" /></mxCell><mxCell id="nat_1a" value="NAT GW 1a&#10;54.224.136.231" style="shape=rectangle;whiteSpace=wrap;html=1;fillColor=#FFFFFF;strokeColor=#000000;fontSize=12;" vertex="1" parent="1"><mxGeometry as="geometry" x="60" y="220" width="140" height="60" /></mxCell><mxCell id="nat_1b" value="NAT GW 1b&#10;44.199.97.225" style="shape=rectangle;whiteSpace=wrap;html=1;fillColor=#FFFFFF;strokeColor=#000000;fontSize=12;" vertex="1" parent="1"><mxGeometry as="geometry" x="180" y="220" width="140" height="60" /></mxCell><mxCell id="priv_sub_1a" value="Private Subnet 1a&#10;subnet-09e4b04da4deab060" style="shape=rectangle;whiteSpace=wrap;html=1;fillColor=#c5cae9;strokeColor=#000000;fontSize=12;" vertex="1" parent="1"><mxGeometry as="geometry" x="60" y="300" width="140" height="60" /></mxCell><mxCell id="priv_sub_1b" value="Private Subnet 1b&#10;subnet-0d667cca34c868c5f" style="shape=rectangle;whiteSpace=wrap;html=1;fillColor=#c5cae9;strokeColor=#000000;fontSize=12;" vertex="1" parent="1"><mxGeometry as="geometry" x="180" y="300" width="140" height="60" /></mxCell><mxCell id="alb" value="ALB&#10;rooman-academy-alb" style="shape=rectangle;whiteSpace=wrap;html=1;fillColor=#d5e8d4;strokeColor=#000000;fontSize=12;" vertex="1" parent="1"><mxGeometry as="geometry" x="120" y="90" width="140" height="60" /></mxCell><mxCell id="web_1a" value="Web Server 1a&#10;44.214.44.90" style="shape=rectangle;whiteSpace=wrap;html=1;fillColor=#FFFFFF;strokeColor=#000000;fontSize=12;" vertex="1" parent="1"><mxGeometry as="geometry" x="60" y="380" width="140" height="60" /></mxCell><mxCell id="web_1b" value="Web Server 1b&#10;13.222.211.246" style="shape=rectangle;whiteSpace=wrap;html=1;fillColor=#FFFFFF;strokeColor=#000000;fontSize=12;" vertex="1" parent="1"><mxGeometry as="geometry" x="180" y="380" width="140" height="60" /></mxCell><mxCell id="app_1a" value="App Server 1a&#10;10.0.3.208" style="shape=rectangle;whiteSpace=wrap;html=1;fillColor=#FFFFFF;strokeColor=#000000;fontSize=12;" vertex="1" parent="1"><mxGeometry as="geometry" x="60" y="450" width="140" height="60" /></mxCell><mxCell id="app_1b" value="App Server 1b&#10;10.0.4.45" style="shape=rectangle;whiteSpace=wrap;html=1;fillColor=#FFFFFF;strokeColor=#000000;fontSize=12;" vertex="1" parent="1"><mxGeometry as="geometry" x="180" y="450" width="140" height="60" /></mxCell><mxCell id="rds" value="RDS MySQL&#10;rooman-academy-mysql" style="shape=rectangle;whiteSpace=wrap;html=1;fillColor=#f8cecc;strokeColor=#000000;fontSize=12;" vertex="1" parent="1"><mxGeometry as="geometry" x="120" y="530" width="140" height="60" /></mxCell><mxCell id="s3" value="S3 Bucket&#10;rooman-backup-bucket" style="shape=rectangle;whiteSpace=wrap;html=1;fillColor=#e1d5e7;strokeColor=#000000;fontSize=12;" vertex="1" parent="1"><mxGeometry as="geometry" x="120" y="610" width="140" height="60" /></mxCell><mxCell id="200" edge="1" parent="1" source="alb" target="web_1a" style="endArrow=block;strokeColor=#000000;"><mxGeometry as="geometry" /></mxCell><mxCell id="201" edge="1" parent="1" source="alb" target="web_1b" style="endArrow=block;strokeColor=#000000;"><mxGeometry as="geometry" /></mxCell><mxCell id="202" edge="1" parent="1" source="web_1a" target="app_1a" style="endArrow=block;strokeColor=#000000;"><mxGeometry as="geometry" /></mxCell><mxCell id="203" edge="1" parent="1" source="web_1b" target="app_1b" style="endArrow=block;strokeColor=#000000;"><mxGeometry as="geometry" /></mxCell><mxCell id="204" edge="1" parent="1" source="app_1a" target="rds" style="endArrow=block;strokeColor=#000000;"><mxGeometry as="geometry" /></mxCell><mxCell id="205" edge="1" parent="1" source="app_1b" target="rds" style="endArrow=block;strokeColor=#000000;"><mxGeometry as="geometry" /></mxCell><mxCell id="206" edge="1" parent="1" source="vpc" target="pub_sub_1a" style="endArrow=block;strokeColor=#000000;"><mxGeometry as="geometry" /></mxCell><mxCell id="207" edge="1" parent="1" source="vpc" target="pub_sub_1b" style="endArrow=block;strokeColor=#000000;"><mxGeometry as="geometry" /></mxCell><mxCell id="208" edge="1" parent="1" source="pub_sub_1a" target="nat_1a" style="endArrow=block;strokeColor=#000000;"><mxGeometry as="geometry" /></mxCell><mxCell id="209" edge="1" parent="1" source="pub_sub_1b" target="nat_1b" style="endArrow=block;strokeColor=#000000;"><mxGeometry as="geometry" /></mxCell><mxCell id="210" edge="1" parent="1" source="vpc" target="priv_sub_1a" style="endArrow=block;strokeColor=#000000;"><mxGeometry as="geometry" /></mxCell><mxCell id="211" edge="1" parent="1" source="vpc" target="priv_sub_1b" style="endArrow=block;strokeColor=#000000;"><mxGeometry as="geometry" /></mxCell><mxCell id="212" edge="1" parent="1" source="rds" target="s3" style="endArrow=block;strokeColor=#000000;"><mxGeometry as="geometry" /></mxCell></root></mxGraphModel></diagram></mxfile>